<svg version="1.1" xmlns="http://www.w3.org/2000/svg" xmlns:xlink="http://www.w3.org/1999/xlink" style="display:none">
<symbol viewBox="0 0 21.696 10.054" id="Licht_Esstisch"><path d="M16.669 7.408h-.794V6.88h.794v.53m5.027 0h-.794v-.53h.794v.53m-3.175 2.645V9.26h.529v.794h-.53m2.139-.661l-.564-.566.376-.374.563.561-.375.379m-3.183-.564l-.561.564-.379-.379.564-.56.376.375m1.31-.098a1.589 1.589 0 0 1-.794-2.963v-.476c0-.146.119-.265.264-.265h1.059c.145 0 .264.12.264.265v.476a1.589 1.589 0 0 1-.794 2.963m-.529-3.968v-.265c0-.146.12-.265.265-.265h.529c.146 0 .265.12.265.265v.265h-1.059m.794.793h-.53v.564a1.058 1.058 0 1 0 .53 0zM8.731 7.408h-.793V6.88h.793v.53m5.027 0h-.793v-.53h.793v.53m-3.175 2.645V9.26h.53v.794h-.53m2.138-.661l-.563-.566.375-.374.564.561-.376.379m-3.183-.564l-.56.564-.379-.379.564-.56.375.375m1.31-.098a1.589 1.589 0 0 1-.794-2.963v-.476c0-.146.12-.265.265-.265h1.058c.146 0 .265.12.265.265v.476a1.589 1.589 0 0 1-.794 2.963m-.53-3.968v-.265c0-.146.12-.265.265-.265h.53c.145 0 .264.12.264.265v.265H10.32m.794.793h-.53v.564a1.058 1.058 0 1 0 .53 0zM.793 7.408H0V6.88h.794v.53m5.027 0h-.794v-.53h.794v.53m-3.175 2.645V9.26h.529v.794h-.53m2.139-.661l-.564-.566.376-.374.563.561-.375.379M1.6 8.829l-.561.564-.379-.379.564-.56.376.375m1.31-.098a1.589 1.589 0 0 1-.794-2.963v-.476c0-.146.119-.265.264-.265h1.06c.145 0 .264.12.264.265v.476A1.589 1.589 0 0 1 2.91 8.73m-.529-3.968v-.265c0-.146.12-.265.265-.265h.529c.146 0 .265.12.265.265v.265H2.38m.794.793h-.53v.564a1.058 1.058 0 1 0 .53 0z"/><path d="M18.653 0v2.646h.265V0zm-.264 2.91a.264.264 0 0 0-.265.266v1.057h.529V3.44h.265v.794h.529V3.176a.264.264 0 0 0-.265-.266zm-.412 1.324a.264.265 0 0 0 .027.528h1.575a.264.264 0 1 0 0-.528h-1.575a.264.264 0 0 0-.027 0zM10.716 0v2.646h.264V0zm-.264 2.91a.264.264 0 0 0-.266.266v1.057h.53V3.44h.265v.794h.528V3.176a.264.264 0 0 0-.265-.266zm-.413 1.324a.264.265 0 0 0 .027.528h1.575a.264.264 0 1 0 0-.528h-1.575a.264.264 0 0 0-.027 0zM2.78 0v2.646h.264V0zm-.265 2.91a.264.264 0 0 0-.265.266v1.057h.529V3.44h.265v.794h.529V3.176a.264.264 0 0 0-.265-.266zm-.412 1.324a.264.265 0 0 0 .027.528h1.575a.264.264 0 1 0 0-.528H2.129a.264.264 0 0 0-.027 0z"/></symbol>
<symbol viewBox="0 0 21.696 10.054" id="Licht_Wohnwand"><path d="M12.7 5.292H8.467V2.117H12.7m0-.53H8.467a.527.527 0 0 0-.53.53v3.175c0 .29.239.529.53.529h1.058v.529h2.117v-.53H12.7a.53.53 0 0 0 .53-.528V2.117a.529.529 0 0 0-.53-.53z"/><path style="line-height:normal;font-variant-ligatures:normal;font-variant-position:normal;font-variant-caps:normal;font-variant-numeric:normal;font-variant-alternates:normal;font-feature-settings:normal;text-indent:0;text-align:start;text-decoration-line:none;text-decoration-style:solid;text-decoration-color:#000;text-transform:none;text-orientation:mixed;shape-padding:0;isolation:auto;mix-blend-mode:normal" d="M9.658 7.408V9.26h.264V7.408zm-4.896.793v.266h4.63V8.2zM.793 0v10.055h.53V0zm2.383 0v10.055h.53V0zM1.588 2.645v.265H2.91v-.265zM0 4.235v.263h.53v-.264zm1.588 2.644v.264H2.91v-.264zM20.11 0v4.764a.265.265 0 0 0 .263.263h1.322v-.529h-1.058V0zM3.969 3.44v.265h3.705V3.44zm9.525 0v.265h6.35V3.44z" color="#000" font-weight="400" font-family="sans-serif" white-space="normal" overflow="visible"/><path style="line-height:normal;font-variant-ligatures:normal;font-variant-position:normal;font-variant-caps:normal;font-variant-numeric:normal;font-variant-alternates:normal;font-feature-settings:normal;text-indent:0;text-align:start;text-decoration-line:none;text-decoration-style:solid;text-decoration-color:#000;text-transform:none;text-orientation:mixed;shape-padding:0;isolation:auto;mix-blend-mode:normal" d="M16.93 6.611a.265.265 0 0 0-.04.004H4.233a.265.265 0 0 0-.033.002.265.265 0 0 0-.023.004.265.265 0 0 0-.022.006.265.265 0 0 0-.004.002.265.265 0 0 0-.088.047.265.265 0 0 0-.003.004.265.265 0 0 0-.09.242v2.82a.265.265 0 0 0 .263.313h12.653a.265.265 0 0 0 .152-.02.265.265 0 0 0 .025-.012.265.265 0 0 0 .042-.029.265.265 0 0 0 .021-.02.265.265 0 0 0 .018-.017.265.265 0 0 0 0-.002.265.265 0 0 0 .015-.02.265.265 0 0 0 0-.001.265.265 0 0 0 .024-.045.265.265 0 0 0 0-.002.265.265 0 0 0 .015-.14v-2.82a.265.265 0 0 0-.01-.126.265.265 0 0 0 0-.002.265.265 0 0 0-.021-.047.265.265 0 0 0 0-.002.265.265 0 0 0-.012-.02.265.265 0 0 0-.002-.003.265.265 0 0 0-.013-.018.265.265 0 0 0-.002-.002.265.265 0 0 0-.018-.018.265.265 0 0 0-.002-.001.265.265 0 0 0-.018-.016.265.265 0 0 0-.002-.002.265.265 0 0 0-.02-.014.265.265 0 0 0-.001 0 .265.265 0 0 0-.147-.045zm-12.432.534h12.17v2.38H4.498z" color="#000" font-weight="400" font-family="sans-serif" white-space="normal" overflow="visible"/></symbol>
<symbol viewBox="0 0 21.696 10.054" id="Licht_Wohnzimmer"><path d="M7.937 5.952v1.744c0 .146.118.265.264.266h5.293c.146 0 .264-.12.263-.266V6.42zm.53.574l4.761.382v.525H8.466zM6.614 4.962v1.17c0 .138.105.253.242.265l7.937.636a.265.265 0 0 0 .287-.263V4.454zm.529.5l7.408-.446v1.467l-7.408-.594zM5.557 2.91a.265.264 0 0 0-.266.265v2.117a.265.264 0 0 0 .281.263l10.583-.636a.265.264 0 0 0 .249-.266V3.176a.265.264 0 0 0-.266-.265zm.263.529h10.054v.966L5.82 5.01zM10.716 0v2.646h.264V0z" style="line-height:normal;font-variant-ligatures:normal;font-variant-position:normal;font-variant-caps:normal;font-variant-numeric:normal;font-variant-alternates:normal;font-feature-settings:normal;text-indent:0;text-align:start;text-decoration-line:none;text-decoration-style:solid;text-decoration-color:#000;text-transform:none;text-orientation:mixed;shape-padding:0;isolation:auto;mix-blend-mode:normal" color="#000" font-weight="400" font-family="sans-serif" white-space="normal" overflow="visible"/><path d="M16.945 6.372l-.687-.397-.265.458.688.397.264-.458m-12.187.014l.687-.397.265.458-.687.397-.265-.458M7.178 9l.398-.687.458.265-.397.687L7.18 9m7.338 0l-.397-.687-.459.265.397.687.459-.265m-3.934 1.054V9.26h.53v.794h-.53"/></symbol>
</svg>