<svg version="1.1" xmlns="http://www.w3.org/2000/svg" xmlns:xlink="http://www.w3.org/1999/xlink" style="display:none">
<symbol viewBox="0 0 24 24" id="account-arrow-left"><path d="M18 21l-3-3 3-3v2h4v2h-4v2M10 4c2.21 0 4 1.79 4 4s-1.79 4-4 4-4-1.79-4-4 1.79-4 4-4m0 10c1.15 0 2.25.12 3.24.34A5.964 5.964 0 0 0 12 18c0 .7.12 1.37.34 2H2v-2c0-2.21 3.58-4 8-4z"/></symbol>
<symbol viewBox="0 0 24 24" id="account-check"><path d="M9 5c1.93 0 3.5 1.57 3.5 3.5S10.93 12 9 12s-3.5-1.57-3.5-3.5S7.07 5 9 5m0 8.75c3.87 0 7 1.57 7 3.5V19H2v-1.75c0-1.93 3.13-3.5 7-3.5m8-1.09l-2.75-3 1.16-1.16L17 10.09l3.59-3.59 1.16 1.41L17 12.66z"/></symbol>
<symbol viewBox="0 0 24 24" id="account-question"><path d="M13 8c0 2.21-1.79 4-4 4s-4-1.79-4-4 1.79-4 4-4 4 1.79 4 4m4 10v2H1v-2c0-2.21 3.58-4 8-4s8 1.79 8 4m3.5-3.5V16H19v-1.5h1.5m-2-5H17V9c0-1.66 1.34-3 3-3s3 1.34 3 3c0 .97-.5 1.88-1.29 2.41l-.3.19c-.57.4-.91 1.01-.91 1.7v.2H19v-.2c0-1.19.6-2.3 1.59-2.95l.29-.19c.39-.26.62-.69.62-1.16 0-.83-.67-1.5-1.5-1.5s-1.5.67-1.5 1.5v.5z"/></symbol>
<symbol viewBox="0 0 24 24" id="account"><path d="M12 4c2.21 0 4 1.79 4 4s-1.79 4-4 4-4-1.79-4-4 1.79-4 4-4m0 10c4.42 0 8 1.79 8 4v2H4v-2c0-2.21 3.58-4 8-4z"/></symbol>
<symbol viewBox="0 0 24 24" id="album"><path d="M12 11c-.55 0-1 .45-1 1s.45 1 1 1 1-.45 1-1-.45-1-1-1m0 5.5c-2.5 0-4.5-2-4.5-4.5s2-4.5 4.5-4.5 4.5 2 4.5 4.5-2 4.5-4.5 4.5M12 2C6.48 2 2 6.48 2 12s4.48 10 10 10 10-4.48 10-10S17.52 2 12 2z"/></symbol>
<symbol viewBox="0 0 24 24" id="alert-box"><path d="M5 3h14c1.1 0 2 .9 2 2v14c0 1.1-.9 2-2 2H5c-1.1 0-2-.9-2-2V5c0-1.1.9-2 2-2m8 10V7h-2v6h2m0 4v-2h-2v2h2z"/></symbol>
<symbol viewBox="0 0 24 24" id="alert-circle-outline"><path d="M11 15h2v2h-2v-2m0-8h2v6h-2V7m1-5C6.47 2 2 6.5 2 12c0 5.52 4.48 10 10 10s10-4.48 10-10S17.52 2 12 2m0 18c-4.42 0-8-3.58-8-8s3.58-8 8-8 8 3.58 8 8-3.58 8-8 8z"/></symbol>
<symbol viewBox="0 0 24 24" id="alert-circle"><path d="M13 13h-2V7h2m0 10h-2v-2h2M12 2C6.48 2 2 6.48 2 12s4.48 10 10 10 10-4.48 10-10S17.52 2 12 2z"/></symbol>
<symbol viewBox="0 0 24 24" id="alert-outline"><path d="M12 2L1 21h22M12 6l7.53 13H4.47M11 10v4h2v-4m-2 6v2h2v-2"/></symbol>
<symbol viewBox="0 0 24 24" id="alert"><path d="M13 14h-2v-4h2m0 8h-2v-2h2M1 21h22L12 2 1 21z"/></symbol>
<symbol viewBox="0 0 24 24" id="arrow-right-thick"><path d="M4 10v4h9l-3.5 3.5 2.42 2.42L19.84 12l-7.92-7.92L9.5 6.5 13 10H4z"/></symbol>
<symbol viewBox="0 0 24 24" id="arrow-right"><path d="M4 11v2h12l-5.5 5.5 1.42 1.42L19.84 12l-7.92-7.92L10.5 5.5 16 11H4z"/></symbol>
<symbol viewBox="0 0 24 24" id="artist"><path d="M11 14c1 0 2.05.16 3.2.44-.81.87-1.2 1.89-1.2 3.06 0 .89.25 1.73.78 2.5H3v-2c0-1.19.91-2.15 2.74-2.88C7.57 14.38 9.33 14 11 14m7.5-4H22v2h-2v5.5c0 .67-.23 1.27-.73 1.77s-1.1.73-1.77.73c-.7 0-1.29-.23-1.77-.73-.49-.5-.73-1.1-.73-1.77 0-.7.24-1.29.73-1.77.48-.49 1.07-.73 1.77-.73.3 0 .64.08 1 .23V10M11 12c-1.08 0-2-.39-2.82-1.17C7.38 10.05 7 9.11 7 8c0-1.08.38-2 1.18-2.82C9 4.38 9.92 4 11 4c1.11 0 2.05.38 2.83 1.18C14.61 6 15 6.92 15 8c0 1.11-.39 2.05-1.17 2.83-.78.78-1.72 1.17-2.83 1.17z"/></symbol>
<symbol viewBox="0 0 24 24" id="audio-video"><path d="M20 7H4c-1.1 0-2 .9-2 2v6c0 1.1.9 2 2 2h1v1c0 .6.4 1 1 1h2c.6 0 1-.4 1-1v-1h6v1c0 .6.4 1 1 1h2c.6 0 1-.4 1-1v-1h1c1.1 0 2-.9 2-2V9c0-1.1-.9-2-2-2m-6 5H4v-2h10v2m4 1c-1.1 0-2-.9-2-2s.9-2 2-2 2 .9 2 2-.9 2-2 2M6 15H4v-1h2v1m4 0H8v-1h2v1m4 0h-2v-1h2v1z"/></symbol>
<symbol viewBox="0 0 24 24" id="brightness-3"><path d="M9 2c-1.05 0-2.05.16-3 .46 4.06 1.27 7 5.04 7 9.54 0 4.5-2.94 8.27-7 9.54.95.3 1.95.46 3 .46 5.52 0 10-4.48 10-10S14.52 2 9 2z"/></symbol>
<symbol viewBox="0 0 24 24" id="buffer"><path d="M12.6 2.86c2.67 1.24 5.4 2.53 8.06 3.77.15.07.34.12.34.32s-.19.24-.34.31C18 8.5 15.3 9.77 12.62 11a1.3 1.3 0 0 1-1.24 0C8.69 9.76 6 8.5 3.32 7.25 3.18 7.19 3 7.14 3 6.94c0-.18.18-.23.31-.29C6 5.39 8.74 4.1 11.44 2.85c.29-.13.86-.12 1.16.01M12 21.15c-.2 0-.34-.08-.62-.18-2.69-1.24-5.38-2.5-8.05-3.75-.14-.07-.33-.11-.33-.32 0-.2.19-.24.34-.31.44-.21.89-.42 1.33-.63.45-.2.89-.2 1.33.01 1.79.83 3.57 1.66 5.35 2.49.44.21.88.2 1.32 0 1.78-.84 3.56-1.67 5.33-2.5.44-.2.87-.21 1.29-.01.48.21.95.44 1.42.66.07.03.14.07.2.12.13.1.13.27 0 .35-.08.06-.17.11-.26.15-2.65 1.27-5.32 2.49-7.99 3.72-.2.1-.47.2-.66.2m0-4.98c-.1 0-.45-.1-.64-.17-2.68-1.26-5.36-2.5-8.02-3.76-.14-.06-.34-.11-.34-.31 0-.21.2-.25.35-.32.45-.22.9-.43 1.35-.64.43-.19.86-.19 1.3.03 1.78.82 3.58 1.66 5.38 2.5.41.19.83.19 1.25 0 1.8-.85 3.6-1.69 5.41-2.53.41-.19.83-.19 1.25 0 .47.22.95.44 1.42.66.06.03.13.06.19.11.14.11.14.26-.01.38-.05.04-.12.07-.18.1-2.71 1.28-5.4 2.53-8.1 3.78-.19.09-.53.17-.61.17z"/></symbol>
<symbol viewBox="0 0 24 24" id="calendar"><path d="M19 19H5V8h14m-3-7v2H8V1H6v2H5c-1.11 0-2 .89-2 2v14c0 1.1.9 2 2 2h14c1.1 0 2-.9 2-2V5a2 2 0 0 0-2-2h-1V1m-1 11h-5v5h5v-5z"/></symbol>
<symbol viewBox="0 0 24 24" id="chevron-down"><path d="M7.41 8.58L12 13.17l4.59-4.59L18 10l-6 6-6-6 1.41-1.42z"/></symbol>
<symbol viewBox="0 0 24 24" id="chevron-right"><path d="M8.59 16.58L13.17 12 8.59 7.41 10 6l6 6-6 6-1.41-1.42z"/></symbol>
<symbol viewBox="0 0 24 24" id="chevron-left"><path d="M15.41 16.58L10.83 12l4.58-4.59L14 6l-6 6 6 6 1.41-1.42z"/></symbol>
<symbol viewBox="0 0 24 24" id="chevron-up"><path d="M7.41 15.41L12 10.83l4.59 4.58L18 14l-6-6-6 6 1.41 1.41z"/></symbol>
<symbol viewBox="0 0 24 24" id="drag"><path d="M7 19v-2h2v2H7m4 0v-2h2v2h-2m4 0v-2h2v2h-2m-8-4v-2h2v2H7m4 0v-2h2v2h-2m4 0v-2h2v2h-2m-8-4V9h2v2H7m4 0V9h2v2h-2m4 0V9h2v2h-2M7 7V5h2v2H7m4 0V5h2v2h-2m4 0V5h2v2h-2z"/></symbol>
<symbol viewBox="0 0 24 24" id="fire"><path d="M11.71 19c-1.78 0-3.21-1.41-3.21-3.14 0-1.62 1.03-2.76 2.8-3.12 1.77-.36 3.6-1.21 4.62-2.58.39 1.29.58 2.65.58 4.04 0 2.64-2.14 4.8-4.79 4.8M13.5.67s.74 2.65.74 4.8c0 2.06-1.35 3.73-3.41 3.73-2.07 0-3.63-1.67-3.63-3.73l.03-.37C5.21 7.5 4 10.61 4 14c0 4.42 3.58 8 8 8s8-3.58 8-8C20 8.6 17.41 3.8 13.5.67z"/></symbol>
<symbol viewBox="0 0 24 24" id="format-align-middle"><path d="M13 6l2-2 1.42 1.42L12 9.84 7.58 5.42 9 4l2 2V2h2v4M3 11h18v2H3v-2m10 7v4h-2v-4l-2 2-1.42-1.42L12 14.16l4.42 4.42L15 20l-2-2z"/></symbol>
<symbol viewBox="0 0 24 24" id="fan"><path d="M12 11c-.55 0-1 .45-1 1s.45 1 1 1 1-.45 1-1-.45-1-1-1m.5-9c4.5 0 4.61 3.57 2.25 4.75-.99.49-1.43 1.54-1.62 2.47.48.2.9.51 1.22.91 3.7-2 7.68-1.21 7.68 2.37 0 4.5-3.57 4.6-4.75 2.23-.5-.99-1.56-1.43-2.49-1.62-.2.48-.51.89-.91 1.23 1.99 3.69 1.2 7.66-2.38 7.66-4.5 0-4.59-3.58-2.23-4.76.98-.49 1.42-1.53 1.62-2.45-.49-.2-.92-.52-1.24-.92C5.96 15.85 2 15.07 2 11.5 2 7 5.56 6.89 6.74 9.26c.5.99 1.55 1.42 2.48 1.61.19-.48.51-.9.92-1.22C8.15 5.96 8.94 2 12.5 2z"/></symbol>
<symbol viewBox="0 0 24 24" id="gauge"><path d="M12 2C6.48 2 2 6.48 2 12s4.48 10 10 10 10-4.48 10-10S17.52 2 12 2m0 2c4.42 0 8 3.58 8 8 0 2.4-1 4.5-2.7 6-1.4-1.3-3.3-2-5.3-2s-3.8.7-5.3 2C5 16.5 4 14.4 4 12c0-4.42 3.58-8 8-8m2 1.89c-.38.01-.74.26-.9.65l-1.29 3.23-.1.23c-.71.13-1.3.6-1.57 1.26-.41 1.03.09 2.19 1.12 2.6 1.03.41 2.19-.09 2.6-1.12.26-.66.14-1.42-.29-1.98l.1-.26 1.29-3.21.01-.03c.2-.51-.05-1.09-.56-1.3-.13-.05-.26-.07-.41-.07M10 6c-.55 0-1 .45-1 1s.45 1 1 1 1-.45 1-1-.45-1-1-1M7 9c-.55 0-1 .45-1 1s.45 1 1 1 1-.45 1-1-.45-1-1-1m10 0c-.55 0-1 .45-1 1s.45 1 1 1 1-.45 1-1-.45-1-1-1z"/></symbol>
<symbol viewBox="0 0 24 24" id="home-assistant"><path d="M21.8 13H20v8h-7v-3.33l2.79-2.79.71.12a2.1 2.1 0 1 0-2.1-2.1l.1.71-1.5 1.52V9.65c.66-.36 1.1-1.05 1.1-1.85a2.1 2.1 0 1 0-4.2 0c0 .8.44 1.49 1.1 1.85v5.48l-1.5-1.52.1-.71A2.1 2.1 0 1 0 7.5 15l.71-.12L11 17.67V21H4v-8H2.25c-.42 0-.83 0-.83-.21.01-.22.43-.64.86-1.07L11 3c.33-.33.67-.67 1-.67.33 0 .67.34 1 .67l4 4V6h2v3l2.78 2.78c.4.4.81.81.82 1.02 0 .2-.4.2-.8.2M7.5 12c.5 0 .9.4.9.9s-.4.9-.9.9-.9-.4-.9-.9.4-.9.9-.9m9 0c.5 0 .9.4.9.9s-.4.9-.9.9-.9-.4-.9-.9.4-.9.9-.9M12 6.9c.5 0 .9.4.9.9s-.4.9-.9.9-.9-.4-.9-.9.4-.9.9-.9z"/></symbol>
<symbol viewBox="0 0 24 24" id="home-outline"><path d="M9 19v-6h6v6h3v-8.09l-6-6-6 6V19h3m3-16.91L21.91 12H20v9h-7v-6h-2v6H4v-9H2.09L12 2.09z"/></symbol>
<symbol viewBox="0 0 24 24" id="home"><path d="M10 20v-6h4v6h5v-8h3L12 3 2 12h3v8h5z"/></symbol>
<symbol viewBox="0 0 24 24" id="lightbulb-on-outline"><path d="M20 11h3v2h-3v-2M1 11h3v2H1v-2M13 1v3h-2V1h2M4.92 3.5l2.13 2.14-1.42 1.41L3.5 4.93 4.92 3.5m12.03 2.13l2.12-2.13 1.43 1.43-2.13 2.12-1.42-1.42M12 6c3.31 0 6 2.69 6 6 0 2.22-1.21 4.16-3 5.2V19c0 .55-.45 1-1 1h-4c-.55 0-1-.45-1-1v-1.8c-1.79-1.04-3-2.98-3-5.2 0-3.31 2.69-6 6-6m2 15v1c0 .55-.45 1-1 1h-2c-.55 0-1-.45-1-1v-1h4m-3-3h2v-2.13A3.999 3.999 0 0 0 12 8a3.999 3.999 0 0 0-1 7.87V18z"/></symbol>
<symbol viewBox="0 0 24 24" id="lightbulb-outline"><path d="M12 2c3.87 0 7 3.13 7 7 0 2.38-1.19 4.47-3 5.74V17c0 .55-.45 1-1 1H9c-.55 0-1-.45-1-1v-2.26C6.19 13.47 5 11.38 5 9c0-3.87 3.13-7 7-7M9 21v-1h6v1c0 .55-.45 1-1 1h-4c-.55 0-1-.45-1-1m3-17C9.24 4 7 6.24 7 9c0 2.05 1.23 3.81 3 4.58V16h4v-2.42c1.77-.77 3-2.53 3-4.58 0-2.76-2.24-5-5-5z"/></symbol>
<symbol viewBox="0 0 24 24" id="memory"><path d="M17 17H7V7h10m4 4V9h-2V7a2 2 0 0 0-2-2h-2V3h-2v2h-2V3H9v2H7c-1.11 0-2 .89-2 2v2H3v2h2v2H3v2h2v2c0 1.1.9 2 2 2h2v2h2v-2h2v2h2v-2h2c1.1 0 2-.9 2-2v-2h2v-2h-2v-2m-6 2h-2v-2h2m2-2H9v6h6V9z"/></symbol>
<symbol viewBox="0 0 24 24" id="music-off"><path d="M2 5.27L3.28 4 20 20.72 18.73 22 9 12.27v5.23C9 19.43 7.43 21 5.5 21S2 19.43 2 17.5 3.57 14 5.5 14c.54 0 1.05.12 1.5.34v-4.07l-5-5M21 3v12.5c0 1-.43 1.92-1.12 2.56l-4.94-4.94c.64-.69 1.56-1.12 2.56-1.12.54 0 1.05.12 1.5.34V6.47l-8.83 1.88-2.51-2.51L21 3z"/></symbol>
<symbol viewBox="0 0 24 24" id="music"><path d="M21 3v12.5c0 1.93-1.57 3.5-3.5 3.5S14 17.43 14 15.5s1.57-3.5 3.5-3.5c.54 0 1.05.12 1.5.34V6.47L9 8.6v8.9C9 19.43 7.43 21 5.5 21S2 19.43 2 17.5 3.57 14 5.5 14c.54 0 1.05.12 1.5.34V6l14-3z"/></symbol>
<symbol viewBox="0 0 24 24" id="pause"><path d="M14 19h4V5h-4M6 19h4V5H6v14z"/></symbol>
<symbol viewBox="0 0 24 24" id="play"><path d="M8 5.14v14l11-7-11-7z"/></symbol>
<symbol viewBox="0 0 24 24" id="playlist-play"><path d="M19 9H2v2h17V9m0-4H2v2h17V5M2 15h13v-2H2v2m15-2v6l5-3-5-3z"/></symbol>
<symbol viewBox="0 0 24 24" id="power"><path d="M16.56 5.44l-1.45 1.45A5.969 5.969 0 0 1 18 12c0 3.31-2.69 6-6 6s-6-2.69-6-6c0-2.17 1.16-4.06 2.88-5.12L7.44 5.44A7.961 7.961 0 0 0 4 12c0 4.42 3.58 8 8 8s8-3.58 8-8c0-2.72-1.36-5.12-3.44-6.56M13 3h-2v10h2"/></symbol>
<symbol viewBox="0 0 24 24" id="refresh"><path d="M17.65 6.35A7.958 7.958 0 0 0 12 4c-4.42 0-8 3.58-8 8s3.58 8 8 8c3.73 0 6.84-2.55 7.73-6h-2.08A5.99 5.99 0 0 1 12 18c-3.31 0-6-2.69-6-6s2.69-6 6-6c1.66 0 3.14.69 4.22 1.78L13 11h7V4l-2.35 2.35z"/></symbol>
<symbol viewBox="0 0 24 24" id="repeat-off"><path d="M2 5.27L3.28 4 20 20.72 18.73 22l-3-3H7v3l-4-4 4-4v3h6.73L7 10.27V11H5V8.27l-3-3M17 13h2v4.18l-2-2V13m0-8V2l4 4-4 4V7H8.82l-2-2H17z"/></symbol>
<symbol viewBox="0 0 24 24" id="repeat-once"><path d="M13 15V9h-1l-2 1v1h1.5v4m5.5 2H7v-3l-4 4 4 4v-3h12v-6h-2M7 7h10v3l4-4-4-4v3H5v6h2V7z"/></symbol>
<symbol viewBox="0 0 24 24" id="repeat"><path d="M17 17H7v-3l-4 4 4 4v-3h12v-6h-2M7 7h10v3l4-4-4-4v3H5v6h2V7z"/></symbol>
<symbol viewBox="0 0 24 24" id="restore"><path d="M13 3a9 9 0 0 0-9 9H1l3.89 3.89.07.14L9 12H6c0-3.87 3.13-7 7-7s7 3.13 7 7-3.13 7-7 7c-1.93 0-3.68-.79-4.94-2.06l-1.42 1.42A8.896 8.896 0 0 0 13 21a9 9 0 0 0 0-18z"/></symbol>
<symbol viewBox="0 0 24 24" id="settings"><path d="M12 15.5c-1.93 0-3.5-1.57-3.5-3.5s1.57-3.5 3.5-3.5 3.5 1.57 3.5 3.5-1.57 3.5-3.5 3.5m7.43-2.53c.04-.32.07-.64.07-.97 0-.33-.03-.66-.07-1l2.11-1.63c.19-.15.24-.42.12-.64l-2-3.46c-.12-.22-.39-.31-.61-.22l-2.49 1c-.52-.39-1.06-.73-1.69-.98l-.37-2.65A.506.506 0 0 0 14 2h-4c-.25 0-.46.18-.5.42l-.37 2.65c-.63.25-1.17.59-1.69.98l-2.49-1c-.22-.09-.49 0-.61.22l-2 3.46c-.13.22-.07.49.12.64L4.57 11c-.04.34-.07.67-.07 1 0 .33.03.65.07.97l-2.11 1.66c-.19.15-.25.42-.12.64l2 3.46c.12.22.39.3.61.22l2.49-1.01c.52.4 1.06.74 1.69.99l.37 2.65c.04.24.25.42.5.42h4c.25 0 .46-.18.5-.42l.37-2.65c.63-.26 1.17-.59 1.69-.99l2.49 1.01c.22.08.49 0 .61-.22l2-3.46c.12-.22.07-.49-.12-.64l-2.11-1.66z"/></symbol>
<symbol viewBox="0 0 24 24" id="shuffle-disabled"><path d="M16 4.5V7H5v2h11v2.5L19.5 8M16 12.5V15H5v2h11v2.5l3.5-3.5"/></symbol>
<symbol viewBox="0 0 24 24" id="shuffle-variant"><path d="M17 3l5.25 4.5L17 12l5.25 4.5L17 21v-3h-2.74l-2.82-2.82 2.12-2.12L15.5 15H17V9h-1.5l-9 9H2v-3h3.26l9-9H17V3M2 6h4.5l2.82 2.82-2.12 2.12L5.26 9H2V6z"/></symbol>
<symbol viewBox="0 0 24 24" id="shuffle"><path d="M14.83 13.41l-1.41 1.41 3.13 3.13L14.5 20H20v-5.5l-2.04 2.04-3.13-3.13M14.5 4l2.04 2.04L4 18.59 5.41 20 17.96 7.46 20 9.5V4m-9.41 5.17L5.41 4 4 5.41l5.17 5.17 1.42-1.41z"/></symbol>
<symbol viewBox="0 0 24 24" id="skip-next"><path d="M16 18h2V6h-2M6 18l8.5-6L6 6v12z"/></symbol>
<symbol viewBox="0 0 24 24" id="skip-previous"><path d="M6 18V6h2v12H6m3.5-6L18 6v12l-8.5-6z"/></symbol>
<symbol viewBox="0 0 24 24" id="source-pull"><path d="M6 3c1.66 0 3 1.34 3 3 0 1.31-.83 2.42-2 2.83v6.34c1.17.41 2 1.52 2 2.83 0 1.66-1.34 3-3 3s-3-1.34-3-3c0-1.31.83-2.42 2-2.83V8.83A2.99 2.99 0 0 1 3 6c0-1.66 1.34-3 3-3m0 2c-.55 0-1 .45-1 1s.45 1 1 1 1-.45 1-1-.45-1-1-1m0 12c-.55 0-1 .45-1 1s.45 1 1 1 1-.45 1-1-.45-1-1-1m15 1c0 1.66-1.34 3-3 3s-3-1.34-3-3c0-1.31.83-2.42 2-2.83V7h-2v3.25L10.75 6 15 1.75V5h2c1.1 0 2 .9 2 2v8.17c1.17.41 2 1.52 2 2.83m-3-1c-.55 0-1 .45-1 1s.45 1 1 1 1-.45 1-1-.45-1-1-1z"/></symbol>
<symbol viewBox="0 0 24 24" id="speaker-off"><path d="M2 5.27L3.28 4 21 21.72 19.73 23l-1.46-1.46c-.34.29-.77.46-1.27.46H7a2 2 0 0 1-2-2V8.27l-3-3M12 18c-1.66 0-3-1.34-3-3 0-.76.28-1.46.75-2l-1.42-1.4a5.002 5.002 0 0 0 7.07 7.07L14 17.25c-.55.47-1.24.75-2 .75m5-3c0-2.76-2.24-5-5-5h-.18l-6.7-6.7C5.41 2.54 6.14 2 7 2h10c1.1 0 2 .9 2 2v13.18l-2-2.01V15M12 4c-1.11 0-2 .89-2 2 0 1.1.9 2 2 2s2-.9 2-2a2 2 0 0 0-2-2z"/></symbol>
<symbol viewBox="0 0 24 24" id="speaker-wireless"><path d="M20.07 19.07l-1.41-1.41A7.955 7.955 0 0 0 21 12c0-2.22-.89-4.22-2.34-5.66l1.41-1.41A9.969 9.969 0 0 1 23 12c0 2.76-1.12 5.26-2.93 7.07m-2.83-2.83l-1.41-1.41A3.99 3.99 0 0 0 17 12c0-1.11-.45-2.11-1.17-2.83l1.41-1.41A5.98 5.98 0 0 1 19 12c0 1.65-.67 3.15-1.76 4.24M4 3h8c1.1 0 2 .9 2 2v14c0 1.1-.9 2-2 2H4c-1.1 0-2-.9-2-2V5c0-1.1.9-2 2-2m4 2c-1.1 0-2 .9-2 2s.9 2 2 2 2-.9 2-2-.9-2-2-2m0 6c-2.21 0-4 1.79-4 4s1.79 4 4 4 4-1.79 4-4-1.79-4-4-4m0 2c1.1 0 2 .9 2 2s-.9 2-2 2-2-.9-2-2 .9-2 2-2z"/></symbol>
<symbol viewBox="0 0 24 24" id="speaker"><path d="M12 12c-1.66 0-3 1.34-3 3s1.34 3 3 3 3-1.34 3-3-1.34-3-3-3m0 8c-2.76 0-5-2.24-5-5s2.24-5 5-5 5 2.24 5 5-2.24 5-5 5m0-16c1.1 0 2 .9 2 2s-.9 2-2 2a2 2 0 0 1-2-2c0-1.11.89-2 2-2m5-2H7c-1.11 0-2 .89-2 2v16c0 1.1.9 2 2 2h10c1.1 0 2-.9 2-2V4a2 2 0 0 0-2-2z"/></symbol>
<symbol viewBox="0 0 24 24" id="spotify"><path d="M17.9 10.9C14.7 9 9.35 8.8 6.3 9.75c-.5.15-1-.15-1.15-.6-.15-.5.15-1 .6-1.15 3.55-1.05 9.4-.85 13.1 1.35.45.25.6.85.35 1.3-.25.35-.85.5-1.3.25m-.1 2.8c-.25.35-.7.5-1.05.25-2.7-1.65-6.8-2.15-9.95-1.15-.4.1-.85-.1-.95-.5-.1-.4.1-.85.5-.95 3.65-1.1 8.15-.55 11.25 1.35.3.15.45.65.2 1m-1.2 2.75c-.2.3-.55.4-.85.2-2.35-1.45-5.3-1.75-8.8-.95-.35.1-.65-.15-.75-.45-.1-.35.15-.65.45-.75 3.8-.85 7.1-.5 9.7 1.1.35.15.4.55.25.85M12 2C6.48 2 2 6.48 2 12s4.48 10 10 10 10-4.48 10-10S17.52 2 12 2z"/></symbol>
<symbol viewBox="0 0 24 24" id="stop"><path d="M18 18H6V6h12v12z"/></symbol>
<symbol viewBox="0 0 24 24" id="star-outline"><path d="M12 15.39l-3.76 2.27.99-4.28-3.32-2.88 4.38-.37L12 6.09l1.71 4.04 4.38.37-3.32 2.88.99 4.28M22 9.24l-7.19-.61L12 2 9.19 8.63 2 9.24l5.45 4.73L5.82 21 12 17.27 18.18 21l-1.64-7.03L22 9.24z"/></symbol>
<symbol viewBox="0 0 24 24" id="surround-sound"><path d="M20 4H4c-1.1 0-2 .9-2 2v12c0 1.1.9 2 2 2h16c1.1 0 2-.9 2-2V6c0-1.1-.9-2-2-2M7.76 16.24l-1.41 1.41A7.909 7.909 0 0 1 4 12c0-2.05.78-4.1 2.34-5.66l1.41 1.41A6.046 6.046 0 0 0 6 12c0 1.54.59 3.07 1.76 4.24M12 16c-2.21 0-4-1.79-4-4s1.79-4 4-4 4 1.79 4 4-1.79 4-4 4m5.66 1.66l-1.41-1.41A6.046 6.046 0 0 0 18 12c0-1.54-.59-3.07-1.76-4.24l1.41-1.41A7.909 7.909 0 0 1 20 12c0 2.05-.78 4.1-2.34 5.66M12 10c-1.1 0-2 .9-2 2s.9 2 2 2 2-.9 2-2-.9-2-2-2z"/></symbol>
<symbol viewBox="0 0 24 24" id="television-off"><path d="M.5 2.77L1.78 1.5 21 20.72 19.73 22l-3-3H16v2H8v-2H3c-1.1 0-2-.9-2-2V5c0-.5.17-.93.46-1.27L.5 2.77M21 17V5H7.82l-2-2H21c1.1 0 2 .9 2 2v12c0 .85-.55 1.59-1.3 1.87L19.82 17H21M3 17h11.73L3 5.27V17z"/></symbol>
<symbol viewBox="0 0 24 24" id="thermometer"><path d="M17 17c0 2.76-2.24 5-5 5a5.002 5.002 0 0 1-3-9V5c0-1.66 1.34-3 3-3s3 1.34 3 3v8c1.21.91 2 2.36 2 4m-6-9v6.17c-1.17.41-2 1.52-2 2.83 0 1.66 1.34 3 3 3s3-1.34 3-3c0-1.31-.83-2.42-2-2.83V8h-2z"/></symbol>
<symbol viewBox="0 0 24 24" id="trending-down"><path d="M16 18l2.29-2.29-4.88-4.88-4 4L2 7.41 3.41 6l6 6 4-4 6.3 6.29L22 12v6h-6z"/></symbol>
<symbol viewBox="0 0 24 24" id="trending-neutral"><path d="M22 12l-4-4v3H3v2h15v3l4-4z"/></symbol>
<symbol viewBox="0 0 24 24" id="trending-up"><path d="M16 6l2.29 2.29-4.88 4.88-4-4L2 16.59 3.41 18l6-6 4 4 6.3-6.29L22 12V6h-6z"/></symbol>
<symbol viewBox="0 0 24 24" id="tune"><path d="M3 17v2h6v-2H3M3 5v2h10V5H3m10 16v-2h8v-2h-8v-2h-2v6h2M7 9v2H3v2h4v2h2V9H7m14 4v-2H11v2h10m-6-4h2V7h4V5h-4V3h-2v6z"/></symbol>
<symbol viewBox="0 0 24 24" id="umbrella-outline"><path d="M12 4C8.9 4 6.18 6.03 5.3 9h13.4A7 7 0 0 0 12 4m0-2a9 9 0 0 1 9 9h-8v8c0 1.66-1.34 3-3 3s-3-1.34-3-3v-1h2v1c0 .55.45 1 1 1s1-.45 1-1v-8H3a9 9 0 0 1 9-9z"/></symbol>
<symbol viewBox="0 0 24 24" id="video-input-hdmi"><path d="M18 7V4c0-1.1-.9-2-2-2H8c-1.1 0-2 .9-2 2v3H5v6l3 6v3h8v-3l3-6V7h-1M8 4h8v3h-2V5h-1v2h-2V5h-1v2H8V4z"/></symbol>
<symbol viewBox="0 0 24 24" id="volume-high"><path d="M14 3.23v2.06c2.89.86 5 3.54 5 6.71s-2.11 5.84-5 6.7v2.07c4-.91 7-4.49 7-8.77 0-4.28-3-7.86-7-8.77M16.5 12c0-1.77-1-3.29-2.5-4.03V16c1.5-.71 2.5-2.24 2.5-4M3 9v6h4l5 5V4L7 9H3z"/></symbol>
<symbol viewBox="0 0 24 24" id="volume-low"><path d="M7 9v6h4l5 5V4l-5 5H7z"/></symbol>
<symbol viewBox="0 0 24 24" id="volume-medium"><path d="M5 9v6h4l5 5V4L9 9m9.5 3c0-1.77-1-3.29-2.5-4.03V16c1.5-.71 2.5-2.24 2.5-4z"/></symbol>
<symbol viewBox="0 0 24 24" id="volume-minus"><path d="M3 9h4l5-5v16l-5-5H3V9m11 2h8v2h-8v-2z"/></symbol>
<symbol viewBox="0 0 24 24" id="volume-mute"><path d="M3 9h4l5-5v16l-5-5H3V9m13.59 3L14 9.41 15.41 8 18 10.59 20.59 8 22 9.41 19.41 12 22 14.59 20.59 16 18 13.41 15.41 16 14 14.59 16.59 12z"/></symbol>
<symbol viewBox="0 0 24 24" id="volume-plus"><path d="M3 9h4l5-5v16l-5-5H3V9m11 2h3V8h2v3h3v2h-3v3h-2v-3h-3v-2z"/></symbol>
<symbol viewBox="0 0 24 24" id="water"><path d="M12 20c-3.31 0-6-2.69-6-6 0-4 6-10.75 6-10.75S18 10 18 14c0 3.31-2.69 6-6 6z"/></symbol>
<symbol viewBox="0 0 24 24" id="water-percent"><path d="M12 3.25S6 10 6 14c0 3.32 2.69 6 6 6s6-2.69 6-6c0-4-6-10.75-6-10.75m2.47 6.72l1.06 1.06-6 6-1.06-1.06M9.75 10a1.25 1.25 0 1 1 0 2.5 1.25 1.25 0 0 1 0-2.5m4.5 4.5a1.25 1.25 0 1 1 0 2.5 1.25 1.25 0 0 1 0-2.5z"/></symbol>
<symbol viewBox="0 0 24 24" id="weather-cloudy"><path d="M6 19c-2.76 0-5-2.24-5-5s2.24-5 5-5c1-2.35 3.3-4 6-4 3.43 0 6.24 2.66 6.5 6.03L19 11c2.21 0 4 1.79 4 4s-1.79 4-4 4H6m13-6h-2v-1a5.004 5.004 0 1 0-9.94-.81C6.73 11.07 6.37 11 6 11c-1.66 0-3 1.34-3 3s1.34 3 3 3h13c1.1 0 2-.9 2-2s-.9-2-2-2z"/></symbol>
<symbol viewBox="0 0 24 24" id="weather-fog"><path d="M3 15h10c.55 0 1 .45 1 1s-.45 1-1 1H3c-.55 0-1-.45-1-1s.45-1 1-1m13 0h5c.55 0 1 .45 1 1s-.45 1-1 1h-5c-.55 0-1-.45-1-1s.45-1 1-1M1 12c0-2.76 2.24-5 5-5 1-2.35 3.3-4 6-4 3.43 0 6.24 2.66 6.5 6.03L19 9c2.19 0 3.97 1.76 4 4h-2c0-1.1-.9-2-2-2h-2v-1a5.004 5.004 0 1 0-9.94-.81C6.73 9.07 6.37 9 6 9c-1.66 0-3 1.34-3 3a3 3 0 0 0 .17 1H1.1L1 12m2 7h2c.55 0 1 .45 1 1s-.45 1-1 1H3c-.55 0-1-.45-1-1s.45-1 1-1m5 0h13c.55 0 1 .45 1 1s-.45 1-1 1H8c-.55 0-1-.45-1-1s.45-1 1-1z"/></symbol>
<symbol viewBox="0 0 24 24" id="weather-hail"><path d="M6 14c.55 0 1 .45 1 1s-.45 1-1 1c-2.76 0-5-2.24-5-5s2.24-5 5-5c1-2.35 3.3-4 6-4 3.43 0 6.24 2.66 6.5 6.03L19 8c2.21 0 4 1.79 4 4s-1.79 4-4 4h-1c-.55 0-1-.45-1-1s.45-1 1-1h1c1.1 0 2-.9 2-2s-.9-2-2-2h-2V9a5.004 5.004 0 1 0-9.94-.81C6.73 8.07 6.37 8 6 8c-1.66 0-3 1.34-3 3s1.34 3 3 3m4 4c1.1 0 2 .9 2 2s-.9 2-2 2-2-.9-2-2 .9-2 2-2m4.5-2c.83 0 1.5.67 1.5 1.5s-.67 1.5-1.5 1.5-1.5-.67-1.5-1.5.67-1.5 1.5-1.5m-4-4c.83 0 1.5.67 1.5 1.5s-.67 1.5-1.5 1.5S9 14.33 9 13.5s.67-1.5 1.5-1.5z"/></symbol>
<symbol viewBox="0 0 24 24" id="weather-hurricane"><path d="M15 6.79c1.86 1.07 3 3.06 3 5.21C18 22 6 22 6 22c1.25-.94 2.38-2.05 3.34-3.29a.99.99 0 0 0-.34-1.5C7.14 16.14 6 14.15 6 12 6 2 18 2 18 2c-1.25.94-2.38 2.05-3.34 3.29a.99.99 0 0 0 .34 1.5M12 14c1.1 0 2-.9 2-2s-.9-2-2-2-2 .9-2 2 .9 2 2 2z"/></symbol>
<symbol viewBox="0 0 24 24" id="weather-lightning-rainy"><path d="M4.5 13.59c.5.28.64.91.37 1.37-.28.48-.87.64-1.37.37A4.98 4.98 0 0 1 1 11c0-2.76 2.24-5 5-5 1-2.35 3.3-4 6-4 3.43 0 6.24 2.66 6.5 6.03L19 8c2.21 0 4 1.79 4 4s-1.79 4-4 4c-.55 0-1-.45-1-1s.45-1 1-1c1.1 0 2-.9 2-2s-.9-2-2-2h-2V9a5.004 5.004 0 1 0-9.94-.81C6.73 8.07 6.37 8 6 8c-1.66 0-3 1.34-3 3 0 1.11.6 2.08 1.5 2.6v-.01m5-2.59h3l-2 4h2l-3.75 7 .75-5H7l2.5-6m8 7.67c0 1.29-1 2.33-2.25 2.33S13 19.96 13 18.67c0-1.55 2.25-4.17 2.25-4.17s2.25 2.62 2.25 4.17z"/></symbol>
<symbol viewBox="0 0 24 24" id="weather-lightning"><path d="M6 16c-2.76 0-5-2.24-5-5s2.24-5 5-5c1-2.35 3.3-4 6-4 3.43 0 6.24 2.66 6.5 6.03L19 8c2.21 0 4 1.79 4 4s-1.79 4-4 4h-1c-.55 0-1-.45-1-1s.45-1 1-1h1c1.1 0 2-.9 2-2s-.9-2-2-2h-2V9a5.004 5.004 0 1 0-9.94-.81C6.73 8.07 6.37 8 6 8c-1.66 0-3 1.34-3 3s1.34 3 3 3h1c.55 0 1 .45 1 1s-.45 1-1 1H6m6-5h3l-2 4h2l-3.75 7 .75-5H9.5l2.5-6z"/></symbol>
<symbol viewBox="0 0 24 24" id="weather-night"><path d="M17.75 4.09l-2.53 1.94.91 3.06-2.63-1.81-2.63 1.81.91-3.06-2.53-1.94L12.44 4l1.06-3 1.06 3 3.19.09m3.5 6.91l-1.64 1.25.59 1.98-1.7-1.17-1.7 1.17.59-1.98L15.75 11l2.06-.05L18.5 9l.69 1.95 2.06.05m-2.28 4.95c.83-.08 1.72 1.1 1.19 1.85-.32.45-.66.87-1.08 1.27C15.17 23 8.84 23 4.94 19.07c-3.91-3.9-3.91-10.24 0-14.14.4-.4.82-.76 1.27-1.08.75-.53 1.93.36 1.85 1.19-.27 2.86.69 5.83 2.89 8.02a9.96 9.96 0 0 0 8.02 2.89m-1.64 2.02a12.08 12.08 0 0 1-7.8-3.47c-2.17-2.19-3.33-5-3.49-7.82-2.81 3.14-2.7 7.96.31 10.98 3.02 3.01 7.84 3.12 10.98.31z"/></symbol>
<symbol viewBox="0 0 24 24" id="weather-partlycloudy"><path d="M12.74 5.47c2.36 1.03 3.61 3.56 3.18 5.99A6.002 6.002 0 0 1 18 16v.17a3 3 0 0 1 1-.17c1.66 0 3 1.34 3 3s-1.34 3-3 3H6c-2.21 0-4-1.79-4-4s1.79-4 4-4h.27C5 12.45 4.6 10.24 5.5 8.26a5.49 5.49 0 0 1 7.24-2.79m-.81 1.83c-1.77-.8-3.84.01-4.62 1.77-.46 1.02-.38 2.15.1 3.06A5.988 5.988 0 0 1 12 10c.7 0 1.38.12 2 .34a3.506 3.506 0 0 0-2.07-3.04m1.62-3.66c-.55-.24-1.1-.41-1.67-.52l2.49-1.3.9 2.89a7.67 7.67 0 0 0-1.72-1.07m-7.46.8c-.49.35-.92.75-1.29 1.19l.11-2.81 2.96.68c-.62.21-1.22.53-1.78.94M18 9.71c-.09-.59-.22-1.16-.41-1.71l2.38 1.5-2.05 2.23c.11-.65.13-1.33.08-2.02M3.04 11.3c.07.6.2 1.17.39 1.7l-2.37-1.5L3.1 9.28c-.1.65-.13 1.33-.06 2.02M19 18h-3v-2c0-2.21-1.79-4-4-4s-4 1.79-4 4H6c-1.1 0-2 .9-2 2s.9 2 2 2h13c.55 0 1-.45 1-1s-.45-1-1-1z"/></symbol>
<symbol viewBox="0 0 24 24" id="weather-pouring"><path d="M9 12c.53.14.85.69.71 1.22l-1.3 4.83c-.14.54-.69.85-1.22.71a.967.967 0 0 1-.69-1.22l1.28-4.83c.14-.54.69-.85 1.22-.71m4 0c.53.14.85.69.71 1.22l-2.07 7.73c-.14.55-.69.85-1.23.71-.53-.16-.85-.69-.71-1.23l2.08-7.72c.14-.54.69-.85 1.22-.71m4 0c.53.14.85.69.71 1.22l-1.3 4.83c-.14.54-.69.85-1.22.71a.967.967 0 0 1-.69-1.22l1.28-4.83c.14-.54.69-.85 1.22-.71m0-2V9a5.004 5.004 0 1 0-9.94-.81C6.73 8.07 6.37 8 6 8c-1.66 0-3 1.34-3 3 0 1.11.6 2.08 1.5 2.6v-.01c.5.28.64.91.37 1.37-.28.47-.87.64-1.37.36v.01A4.98 4.98 0 0 1 1 11c0-2.76 2.24-5 5-5 1-2.35 3.3-4 6-4 3.43 0 6.24 2.66 6.5 6.03L19 8c2.21 0 4 1.79 4 4 0 1.5-.8 2.77-2 3.46-.5.27-1.09.11-1.37-.37-.27-.48-.13-1.09.37-1.37v.01c.6-.34 1-.99 1-1.73 0-1.1-.9-2-2-2h-2z"/></symbol>
<symbol viewBox="0 0 24 24" id="weather-rainy"><path d="M6 14c.55 0 1 .45 1 1s-.45 1-1 1c-2.76 0-5-2.24-5-5s2.24-5 5-5c1-2.35 3.3-4 6-4 3.43 0 6.24 2.66 6.5 6.03L19 8c2.21 0 4 1.79 4 4s-1.79 4-4 4h-1c-.55 0-1-.45-1-1s.45-1 1-1h1c1.1 0 2-.9 2-2s-.9-2-2-2h-2V9a5.004 5.004 0 1 0-9.94-.81C6.73 8.07 6.37 8 6 8c-1.66 0-3 1.34-3 3s1.34 3 3 3m8.83 1.67c1.56 1.56 1.56 3.83 0 5.41-.78.78-1.83.92-2.83.92s-2.05-.14-2.83-.92c-1.56-1.58-1.56-3.85 0-5.41L12 11l2.83 4.67m-1.42 1.02L12 14.25l-1.41 2.44c-.79.81-.79 2.01 0 2.81.41.43.91.5 1.41.5.5 0 1-.07 1.41-.5.79-.8.79-2 0-2.81z"/></symbol>
<symbol viewBox="0 0 24 24" id="weather-snowy-rainy"><path d="M18.5 18.67c0 1.29-1 2.33-2.25 2.33S14 19.96 14 18.67c0-1.55 2.25-4.17 2.25-4.17s2.25 2.62 2.25 4.17M4 17.36c-.14-.54.18-1.11.73-1.25L7 15.5l-1.67-1.64c-.4-.4-.4-1.05 0-1.46.4-.4 1.07-.4 1.46 0l1.66 1.65.59-2.25c.14-.56.71-.88 1.25-.73.56.14.88.71.71 1.26l-.58 2.25 2.25-.58a.99.99 0 0 1 1.26.71c.15.54-.17 1.11-.73 1.25l-2.25.59 1.65 1.66c.4.39.4 1.06 0 1.46-.4.4-1.06.4-1.45 0L9.5 18l-.61 2.27c-.14.56-.71.87-1.25.73-.56-.14-.87-.71-.73-1.26l.59-2.24-2.24.59c-.55.14-1.12-.17-1.26-.73M1 11c0-2.76 2.24-5 5-5 1-2.35 3.3-4 6-4 3.43 0 6.24 2.66 6.5 6.03L19 8c2.21 0 4 1.79 4 4s-1.79 4-4 4c-.55 0-1-.45-1-1s.45-1 1-1c1.1 0 2-.9 2-2s-.9-2-2-2h-2V9a5.004 5.004 0 1 0-9.94-.81C6.73 8.07 6.37 8 6 8c-1.66 0-3 1.34-3 3 0 .85.35 1.61.91 2.16.36.39.35 1-.03 1.38a.996.996 0 0 1-1.41 0A4.988 4.988 0 0 1 1 11z"/></symbol>
<symbol viewBox="0 0 24 24" id="weather-snowy"><path d="M6 14c.55 0 1 .45 1 1s-.45 1-1 1c-2.76 0-5-2.24-5-5s2.24-5 5-5c1-2.35 3.3-4 6-4 3.43 0 6.24 2.66 6.5 6.03L19 8c2.21 0 4 1.79 4 4s-1.79 4-4 4h-1c-.55 0-1-.45-1-1s.45-1 1-1h1c1.1 0 2-.9 2-2s-.9-2-2-2h-2V9a5.004 5.004 0 1 0-9.94-.81C6.73 8.07 6.37 8 6 8c-1.66 0-3 1.34-3 3s1.34 3 3 3m1.88 4.07l2.19-.57-1.61-1.62c-.39-.38-.39-1.02 0-1.42.39-.39 1.04-.39 1.42 0l1.62 1.61.57-2.19a1 1 0 0 1 1.93.52l-.59 2.19L15.6 16a1 1 0 1 1 .52 1.93l-2.19.57 1.61 1.62c.39.38.39 1.03 0 1.42-.39.39-1.04.39-1.42 0l-1.62-1.61-.57 2.19A1 1 0 0 1 10 21.6l.59-2.19L8.4 20a1 1 0 1 1-.52-1.93z"/></symbol>
<symbol viewBox="0 0 24 24" id="weather-sunny"><path d="M12 7c2.76 0 5 2.24 5 5s-2.24 5-5 5-5-2.24-5-5 2.24-5 5-5m0 2c-1.66 0-3 1.34-3 3s1.34 3 3 3 3-1.34 3-3-1.34-3-3-3m0-7l2.39 3.42C13.65 5.15 12.84 5 12 5c-.84 0-1.65.15-2.39.42L12 2M3.34 7l4.16-.35A7.2 7.2 0 0 0 5.94 8.5c-.44.74-.69 1.5-.83 2.29L3.34 7m.02 10l1.76-3.77a7.131 7.131 0 0 0 2.38 4.14L3.36 17M20.65 7l-1.77 3.79a7.023 7.023 0 0 0-2.38-4.15l4.15.36m-.01 10l-4.14.36c.59-.51 1.12-1.14 1.54-1.86.42-.73.69-1.5.83-2.29L20.64 17M12 22l-2.41-3.44c.74.27 1.55.44 2.41.44.82 0 1.63-.17 2.37-.44L12 22z"/></symbol>
<symbol viewBox="0 0 24 24" id="weather-sunset-down"><path d="M3 12h4c0-2.76 2.24-5 5-5s5 2.24 5 5h4c.55 0 1 .45 1 1s-.45 1-1 1H3c-.55 0-1-.45-1-1s.45-1 1-1m12 0c0-1.66-1.34-3-3-3s-3 1.34-3 3h6M12 2l2.39 3.42C13.65 5.15 12.84 5 12 5c-.84 0-1.65.15-2.39.42L12 2M3.34 7l4.16-.35A7.2 7.2 0 0 0 5.94 8.5c-.44.74-.69 1.5-.83 2.29L3.34 7m17.31 0l-1.77 3.79a7.023 7.023 0 0 0-2.38-4.15l4.15.36m-7.94 13.71l3.11-3.11c.39-.39.39-1.03 0-1.42a.996.996 0 0 0-1.41 0L12 18.59l-2.41-2.41a.996.996 0 0 0-1.41 0c-.39.39-.39 1.03 0 1.42l3.11 3.11c.21.19.45.29.71.29.26 0 .5-.1.71-.29z"/></symbol>
<symbol viewBox="0 0 24 24" id="weather-sunset-up"><path d="M3 12h4c0-2.76 2.24-5 5-5s5 2.24 5 5h4c.55 0 1 .45 1 1s-.45 1-1 1H3c-.55 0-1-.45-1-1s.45-1 1-1m12 0c0-1.66-1.34-3-3-3s-3 1.34-3 3h6M12 2l2.39 3.42C13.65 5.15 12.84 5 12 5c-.84 0-1.65.15-2.39.42L12 2M3.34 7l4.16-.35A7.2 7.2 0 0 0 5.94 8.5c-.44.74-.69 1.5-.83 2.29L3.34 7m17.31 0l-1.77 3.79a7.023 7.023 0 0 0-2.38-4.15l4.15.36m-7.94 9.3l3.11 3.11a.996.996 0 1 1-1.41 1.41L12 18.41l-2.41 2.41a.996.996 0 1 1-1.41-1.41l3.11-3.11c.21-.2.45-.3.71-.3.26 0 .5.1.71.3z"/></symbol>
<symbol viewBox="0 0 24 24" id="weather-sunset"><path d="M3 12h4c0-2.76 2.24-5 5-5s5 2.24 5 5h4c.55 0 1 .45 1 1s-.45 1-1 1H3c-.55 0-1-.45-1-1s.45-1 1-1m2 4h14c.55 0 1 .45 1 1s-.45 1-1 1H5c-.55 0-1-.45-1-1s.45-1 1-1m12 4c.55 0 1 .45 1 1s-.45 1-1 1H7c-.55 0-1-.45-1-1s.45-1 1-1h10m-2-8c0-1.66-1.34-3-3-3s-3 1.34-3 3h6M12 2l2.39 3.42C13.65 5.15 12.84 5 12 5c-.84 0-1.65.15-2.39.42L12 2M3.34 7l4.16-.35A7.2 7.2 0 0 0 5.94 8.5c-.44.74-.69 1.5-.83 2.29L3.34 7m17.31 0l-1.77 3.79a7.023 7.023 0 0 0-2.38-4.15l4.15.36z"/></symbol>
<symbol viewBox="0 0 24 24" id="weather-windy-variant"><path d="M6 6l.69.06A5.499 5.499 0 0 1 12 2c3.04 0 5.5 2.46 5.5 5.5l-.08.95c.46-.29 1-.45 1.58-.45 1.66 0 3 1.34 3 3s-1.34 3-3 3H6c-2.21 0-4-1.79-4-4s1.79-4 4-4m0 2c-1.1 0-2 .9-2 2s.9 2 2 2h13c.55 0 1-.45 1-1s-.45-1-1-1h-3.5V7.5C15.5 5.57 13.93 4 12 4S8.5 5.57 8.5 7.5V8H6m12 10H4c-.55 0-1-.45-1-1s.45-1 1-1h14c1.66 0 3 1.34 3 3a2.996 2.996 0 0 1-5.12 2.12c-.38-.39-.38-1.02 0-1.41a.996.996 0 0 1 1.41 0A1.003 1.003 0 0 0 19 19c0-.55-.45-1-1-1z"/></symbol>
<symbol viewBox="0 0 24 24" id="web"><path d="M16.36 14c.08-.66.14-1.32.14-2 0-.68-.06-1.34-.14-2h3.38c.16.64.26 1.31.26 2s-.1 1.36-.26 2m-5.15 5.56c.6-1.11 1.06-2.31 1.38-3.56h2.95a8.03 8.03 0 0 1-4.33 3.56M14.34 14H9.66c-.1-.66-.16-1.32-.16-2 0-.68.06-1.35.16-2h4.68c.09.65.16 1.32.16 2 0 .68-.07 1.34-.16 2M12 19.96c-.83-1.2-1.5-2.53-1.91-3.96h3.82c-.41 1.43-1.08 2.76-1.91 3.96M8 8H5.08A7.923 7.923 0 0 1 9.4 4.44C8.8 5.55 8.35 6.75 8 8m-2.92 8H8c.35 1.25.8 2.45 1.4 3.56A8.008 8.008 0 0 1 5.08 16m-.82-2C4.1 13.36 4 12.69 4 12s.1-1.36.26-2h3.38c-.08.66-.14 1.32-.14 2 0 .68.06 1.34.14 2M12 4.03c.83 1.2 1.5 2.54 1.91 3.97h-3.82c.41-1.43 1.08-2.77 1.91-3.97M18.92 8h-2.95a15.65 15.65 0 0 0-1.38-3.56c1.84.63 3.37 1.9 4.33 3.56M12 2C6.47 2 2 6.5 2 12c0 5.52 4.48 10 10 10s10-4.48 10-10S17.52 2 12 2z"/></symbol>
<symbol viewBox="0 0 24 24" id="weather-windy"><path d="M4 10c-.55 0-1-.45-1-1s.45-1 1-1h8c1.1 0 2-.9 2-2s-.9-2-2-2c-.55 0-1.05.22-1.41.59a.973.973 0 0 1-1.42 0c-.39-.39-.39-1.03 0-1.42C9.9 2.45 10.9 2 12 2c2.21 0 4 1.79 4 4s-1.79 4-4 4H4m15 2c.55 0 1-.45 1-1a1.003 1.003 0 0 0-1.71-.71.996.996 0 0 1-1.41 0c-.38-.39-.38-1.02 0-1.41A2.996 2.996 0 0 1 22 11c0 1.66-1.34 3-3 3H5c-.55 0-1-.45-1-1s.45-1 1-1h14m-1 6H4c-.55 0-1-.45-1-1s.45-1 1-1h14c1.66 0 3 1.34 3 3a2.996 2.996 0 0 1-5.12 2.12c-.38-.39-.38-1.02 0-1.41a.996.996 0 0 1 1.41 0A1.003 1.003 0 0 0 19 19c0-.55-.45-1-1-1z"/></symbol>
<symbol viewBox="0 0 24 24" id="cloud"><path d="M19.35 10.03A7.49 7.49 0 0 0 12 4C9.11 4 6.6 5.64 5.35 8.03A6.004 6.004 0 0 0 6 20h13c2.76 0 5-2.24 5-5 0-2.64-2.05-4.78-4.65-4.97z"/></symbol>
<symbol viewBox="0 0 24 24" id="clock"><path d="M12 2C6.48 2 2 6.48 2 12s4.48 10 10 10 10-4.48 10-10S17.52 2 12 2m4.2 14.2L11 13V7h1.5v5.2l4.5 2.7-.8 1.3z"/></symbol>
</svg>