<svg version="1.1" id="Layer_1" xmlns="http://www.w3.org/2000/svg" xmlns:xlink="http://www.w3.org/1999/xlink" x="0px" y="0px" viewBox="-10 -10 120 120" xml:space="preserve"><defs><mask id="shadowMask">      <rect width="100%" height="100%" fill="black"/>      <circle cx="50" cy="50" r="49" fill="white"/></mask></defs><path stroke="none" stroke-width="1" fill="#1b3024"  d="M14.865 30.695 L73.217 32.702 L74.836 33.362 L74.233 34.944 L86.571 39.66 L72.165 77.461 L27.08 75.887 L27.561 62.137 L13.807 61.866" /><path stroke="#1b3024" stroke-width="1" fill="none"  d="M27.08 75.887 L27.561 62.137 L13.807 61.866 L14.865 30.695 L73.217 32.702 L74.836 33.362 L74.233 34.944 L86.571 39.66" /><path d="M2.9844169003 67.0157264257 A50 50 0 1 1 96.9624154834 67.1619209869" stroke="#1b3024" stroke-width="1" fill="none"  /><path d="M96.9624154834 67.1619209869 A50 50 0 0 1 2.9844169003 67.0157264257" stroke="#26bf75" stroke-width="1" fill="none"  /><path stroke="#26bf75" stroke-width="1" fill="none"  d="M95.0839188641 66.4754441474 L98.8409121028 67.8483978264" /><path stroke="#26bf75" stroke-width="1" fill="none"  d="M4.86504022429 66.3350973687 L1.10379357632 67.6963554828" /><path d="M43.0246374164 -7.57902670962 A58 58 0 0 1 68.3903549603 -5.0072253839" stroke="#1b3024" stroke-width="3" fill="none" stroke-opacity="0.2"  /><path d="M68.3903549603 -5.0072253839 A58 58 0 0 1 87.9163713453 6.10980993432" stroke="#1b3024" stroke-width="3" fill="none"  /><path d="M87.9163713453 6.10980993432 A58 58 0 0 1 99.5398142711 19.8369961379" stroke="#1b3024" stroke-width="3" fill="none" stroke-opacity="0.2"  /><path d="M99.5398142711 19.8369961379 A58 58 0 0 1 105.471099579 33.0601915157" stroke="#1b3024" stroke-width="3" fill="none"  /><path d="M105.471099579 33.0601915157 A58 58 0 0 1 107.801434934 45.2047815909" stroke="#1b3024" stroke-width="3" fill="none" stroke-opacity="0.2"  /><path d="M107.801434934 45.2047815909 A58 58 0 0 1 107.632360615 56.5200467788" stroke="#1b3024" stroke-width="3" fill="none"  /><path d="M107.632360615 56.5200467788 A58 58 0 0 1 105.345256847 67.3465427274" stroke="#1b3024" stroke-width="3" fill="none" stroke-opacity="0.2"  /><path d="M105.345256847 67.3465427274 A58 58 0 0 1 100.860164484 77.8790901693" stroke="#1b3024" stroke-width="3" fill="none"  /><path d="M100.860164484 77.8790901693 A58 58 0 0 1 93.7975551487 88.023337084" stroke="#1b3024" stroke-width="3" fill="none" stroke-opacity="0.2"  /><path d="M93.7975551487 88.023337084 A58 58 0 0 1 83.6784661024 97.2203443549" stroke="#1b3024" stroke-width="3" fill="none"  /><path d="M83.6784661024 97.2203443549 A58 58 0 0 1 70.3307882841 104.319969143" stroke="#1b3024" stroke-width="3" fill="none" stroke-opacity="0.2"  /><path d="M70.3307882841 104.319969143 A58 58 0 0 1 54.4865958927 107.826209086" stroke="#1b3024" stroke-width="3" fill="none"  /><path d="M54.4865958927 107.826209086 A58 58 0 0 1 38.0124362452 106.747672333" stroke="#1b3024" stroke-width="3" fill="none" stroke-opacity="0.2"  /><path d="M38.0124362452 106.747672333 A58 58 0 0 1 23.123659893 101.397104417" stroke="#1b3024" stroke-width="3" fill="none"  /><path d="M23.123659893 101.397104417 A58 58 0 0 1 11.2124400061 93.1222122545" stroke="#1b3024" stroke-width="3" fill="none" stroke-opacity="0.2"  /><path d="M11.2124400061 93.1222122545 A58 58 0 0 1 2.53696810139 83.3355756361" stroke="#1b3024" stroke-width="3" fill="none"  /><path d="M2.53696810139 83.3355756361 A58 58 0 0 1 -3.2789401036 72.9206138975" stroke="#1b3024" stroke-width="3" fill="none" stroke-opacity="0.2"  /><path d="M-3.2789401036 72.9206138975 A58 58 0 0 1 -6.70156886456 62.203773527" stroke="#1b3024" stroke-width="3" fill="none"  /><path d="M-6.70156886456 62.203773527 A58 58 0 0 1 -7.98898386616 51.1303761189" stroke="#1b3024" stroke-width="3" fill="none" stroke-opacity="0.2"  /><path d="M-7.98898386616 51.1303761189 A58 58 0 0 1 -7.02806915502 39.4264798459" stroke="#1b3024" stroke-width="3" fill="none"  /><path d="M-7.02806915502 39.4264798459 A58 58 0 0 1 -3.1425079837 26.7648145004" stroke="#1b3024" stroke-width="3" fill="none" stroke-opacity="0.2"  /><path d="M-3.1425079837 26.7648145004 A58 58 0 0 1 5.19546088427 13.1685830489" stroke="#1b3024" stroke-width="3" fill="none"  /><path d="M5.19546088427 13.1685830489 A58 58 0 0 1 20.3211403769 0.16863145095" stroke="#1b3024" stroke-width="3" fill="none" stroke-opacity="0.2"  /><path d="M20.3211403769 0.16863145095 A58 58 0 0 1 43.0246374164 -7.57902670962" stroke="#1b3024" stroke-width="3" fill="none"  /><path stroke="#26bf75" stroke-width="1" fill="none"  d="M43.3854320328 -4.60080119016 L42.6638428 -10.5572522291" /><path stroke="#26bf75" stroke-width="1" fill="none"  d="M54.2545305879 104.835198272 L54.7186611975 110.817219901" /><circle cx="9.85863015291" cy="20.1894242458" r="3" stroke="#26bf75" stroke-width="1" fill="#26bf75" /></svg>