<svg xmlns="http://www.w3.org/2000/svg" viewBox="0 0 21.695833 10.054167" height="38" width="82"><path d="M7.937 5.952v1.744c0 .146.118.265.264.266h5.293c.146 0 .264-.12.263-.266V6.42zm.53.574l4.761.382v.525H8.466zM6.614 4.962v1.17c0 .138.105.253.242.265l7.937.636a.265.265 0 0 0 .287-.263V4.454zm.529.5l7.408-.446v1.467l-7.408-.594zM5.557 2.91a.265.264 0 0 0-.266.265v2.117a.265.264 0 0 0 .281.263l10.583-.636a.265.264 0 0 0 .249-.266V3.176a.265.264 0 0 0-.266-.265zm.263.529h10.054v.966L5.82 5.01zM10.716 0v2.646h.264V0z" style="line-height:normal;font-variant-ligatures:normal;font-variant-position:normal;font-variant-caps:normal;font-variant-numeric:normal;font-variant-alternates:normal;font-feature-settings:normal;text-indent:0;text-align:start;text-decoration-line:none;text-decoration-style:solid;text-decoration-color:#000;text-transform:none;text-orientation:mixed;shape-padding:0;isolation:auto;mix-blend-mode:normal" color="#000" font-weight="400" font-family="sans-serif" white-space="normal" overflow="visible"/><path d="M16.945 6.372l-.687-.397-.265.458.688.397.264-.458m-12.187.014l.687-.397.265.458-.687.397-.265-.458M7.178 9l.398-.687.458.265-.397.687L7.18 9m7.338 0l-.397-.687-.459.265.397.687.459-.265m-3.934 1.054V9.26h.53v.794h-.53"/></svg>