<svg xmlns="http://www.w3.org/2000/svg" viewBox="0 0 21.696 10.054" height="38" width="82"><path d="M16.669 7.408h-.794V6.88h.794v.53m5.027 0h-.794v-.53h.794v.53m-3.175 2.645V9.26h.529v.794h-.53m2.139-.661l-.564-.566.376-.374.563.561-.375.379m-3.183-.564l-.561.564-.379-.379.564-.56.376.375m1.31-.098a1.589 1.589 0 0 1-.794-2.963v-.476c0-.146.119-.265.264-.265h1.059c.145 0 .264.12.264.265v.476a1.589 1.589 0 0 1-.794 2.963m-.529-3.968v-.265c0-.146.12-.265.265-.265h.529c.146 0 .265.12.265.265v.265h-1.059m.794.793h-.53v.564a1.058 1.058 0 1 0 .53 0zM8.731 7.408h-.793V6.88h.793v.53m5.027 0h-.793v-.53h.793v.53m-3.175 2.645V9.26h.53v.794h-.53m2.138-.661l-.563-.566.375-.374.564.561-.376.379m-3.183-.564l-.56.564-.379-.379.564-.56.375.375m1.31-.098a1.589 1.589 0 0 1-.794-2.963v-.476c0-.146.12-.265.265-.265h1.058c.146 0 .265.12.265.265v.476a1.589 1.589 0 0 1-.794 2.963m-.53-3.968v-.265c0-.146.12-.265.265-.265h.53c.145 0 .264.12.264.265v.265H10.32m.794.793h-.53v.564a1.058 1.058 0 1 0 .53 0zM.793 7.408H0V6.88h.794v.53m5.027 0h-.794v-.53h.794v.53m-3.175 2.645V9.26h.529v.794h-.53m2.139-.661l-.564-.566.376-.374.563.561-.375.379M1.6 8.829l-.561.564-.379-.379.564-.56.376.375m1.31-.098a1.589 1.589 0 0 1-.794-2.963v-.476c0-.146.119-.265.264-.265h1.06c.145 0 .264.12.264.265v.476A1.589 1.589 0 0 1 2.91 8.73m-.529-3.968v-.265c0-.146.12-.265.265-.265h.529c.146 0 .265.12.265.265v.265H2.38m.794.793h-.53v.564a1.058 1.058 0 1 0 .53 0z"/><path d="M18.653 0v2.646h.265V0zm-.264 2.91a.264.264 0 0 0-.265.266v1.057h.529V3.44h.265v.794h.529V3.176a.264.264 0 0 0-.265-.266zm-.412 1.324a.264.265 0 0 0 .027.528h1.575a.264.264 0 1 0 0-.528h-1.575a.264.264 0 0 0-.027 0zM10.716 0v2.646h.264V0zm-.264 2.91a.264.264 0 0 0-.266.266v1.057h.53V3.44h.265v.794h.528V3.176a.264.264 0 0 0-.265-.266zm-.413 1.324a.264.265 0 0 0 .027.528h1.575a.264.264 0 1 0 0-.528h-1.575a.264.264 0 0 0-.027 0zM2.78 0v2.646h.264V0zm-.265 2.91a.264.264 0 0 0-.265.266v1.057h.529V3.44h.265v.794h.529V3.176a.264.264 0 0 0-.265-.266zm-.412 1.324a.264.265 0 0 0 .027.528h1.575a.264.264 0 1 0 0-.528H2.129a.264.264 0 0 0-.027 0z"/></svg>