<svg xmlns="http://www.w3.org/2000/svg" width="82" height="38" viewBox="0 0 21.696 10.054"><path d="M12.7 5.292H8.467V2.117H12.7m0-.53H8.467a.527.527 0 0 0-.53.53v3.175c0 .29.239.529.53.529h1.058v.529h2.117v-.53H12.7a.53.53 0 0 0 .53-.528V2.117a.529.529 0 0 0-.53-.53z"/><path style="line-height:normal;font-variant-ligatures:normal;font-variant-position:normal;font-variant-caps:normal;font-variant-numeric:normal;font-variant-alternates:normal;font-feature-settings:normal;text-indent:0;text-align:start;text-decoration-line:none;text-decoration-style:solid;text-decoration-color:#000;text-transform:none;text-orientation:mixed;shape-padding:0;isolation:auto;mix-blend-mode:normal" d="M9.658 7.408V9.26h.264V7.408zm-4.896.793v.266h4.63V8.2zM.793 0v10.055h.53V0zm2.383 0v10.055h.53V0zM1.588 2.645v.265H2.91v-.265zM0 4.235v.263h.53v-.264zm1.588 2.644v.264H2.91v-.264zM20.11 0v4.764a.265.265 0 0 0 .263.263h1.322v-.529h-1.058V0zM3.969 3.44v.265h3.705V3.44zm9.525 0v.265h6.35V3.44z" color="#000" font-weight="400" font-family="sans-serif" white-space="normal" overflow="visible"/><path style="line-height:normal;font-variant-ligatures:normal;font-variant-position:normal;font-variant-caps:normal;font-variant-numeric:normal;font-variant-alternates:normal;font-feature-settings:normal;text-indent:0;text-align:start;text-decoration-line:none;text-decoration-style:solid;text-decoration-color:#000;text-transform:none;text-orientation:mixed;shape-padding:0;isolation:auto;mix-blend-mode:normal" d="M16.93 6.611a.265.265 0 0 0-.04.004H4.233a.265.265 0 0 0-.033.002.265.265 0 0 0-.023.004.265.265 0 0 0-.022.006.265.265 0 0 0-.004.002.265.265 0 0 0-.088.047.265.265 0 0 0-.003.004.265.265 0 0 0-.09.242v2.82a.265.265 0 0 0 .263.313h12.653a.265.265 0 0 0 .152-.02.265.265 0 0 0 .025-.012.265.265 0 0 0 .042-.029.265.265 0 0 0 .021-.02.265.265 0 0 0 .018-.017.265.265 0 0 0 0-.002.265.265 0 0 0 .015-.02.265.265 0 0 0 0-.001.265.265 0 0 0 .024-.045.265.265 0 0 0 0-.002.265.265 0 0 0 .015-.14v-2.82a.265.265 0 0 0-.01-.126.265.265 0 0 0 0-.002.265.265 0 0 0-.021-.047.265.265 0 0 0 0-.002.265.265 0 0 0-.012-.02.265.265 0 0 0-.002-.003.265.265 0 0 0-.013-.018.265.265 0 0 0-.002-.002.265.265 0 0 0-.018-.018.265.265 0 0 0-.002-.001.265.265 0 0 0-.018-.016.265.265 0 0 0-.002-.002.265.265 0 0 0-.02-.014.265.265 0 0 0-.001 0 .265.265 0 0 0-.147-.045zm-12.432.534h12.17v2.38H4.498z" color="#000" font-weight="400" font-family="sans-serif" white-space="normal" overflow="visible"/></svg>